<svg width="371" height="371" viewBox="0 0 371 371" fill="none" xmlns="http://www.w3.org/2000/svg">
<g filter="url(#filter0_i)">
<rect y="185.28" width="262.025" height="262.025" rx="8" transform="rotate(-45 0 185.28)" fill="white"/>
</g>
<rect x="0.707107" y="185.28" width="261.025" height="261.025" rx="7.5" transform="rotate(-45 0.707107 185.28)" stroke="#FF5C00"/>
<g filter="url(#filter1_i)">
<path d="M56.6569 191.613C53.5327 188.489 53.5327 183.424 56.6569 180.3L179.912 57.0447C183.036 53.9205 188.101 53.9205 191.225 57.0447L314.48 180.3C317.604 183.424 317.604 188.489 314.48 191.613L191.225 314.868C188.101 317.992 183.036 317.992 179.912 314.868L56.6569 191.613Z" fill="white"/>
</g>
<path d="M56.8336 191.437C53.8071 188.41 53.8071 183.503 56.8336 180.476L180.088 57.2215C183.115 54.1949 188.022 54.1949 191.049 57.2215L314.303 180.476C317.33 183.503 317.33 188.41 314.304 191.436L191.049 314.691C188.022 317.718 183.115 317.718 180.088 314.691L56.8336 191.437Z" stroke="#FF5C00" stroke-width="0.5"/>
<g filter="url(#filter2_i)">
<rect x="96" y="186.691" width="126.194" height="126.194" rx="8" transform="rotate(-45 96 186.691)" fill="white"/>
</g>
<rect x="96.1768" y="186.691" width="125.944" height="125.944" rx="7.875" transform="rotate(-45 96.1768 186.691)" stroke="#FF5C00" stroke-width="0.25"/>
<g filter="url(#filter3_i)">
<rect x="135" y="188.145" width="71.2411" height="71.241" rx="8" transform="rotate(-45 135 188.145)" fill="#FF5C00"/>
</g>
<rect x="135.088" y="188.145" width="71.1161" height="71.116" rx="7.9375" transform="rotate(-45 135.088 188.145)" stroke="#FF5C00" stroke-width="0.125"/>
<rect x="157.088" y="188.468" width="40.1343" height="40.1343" rx="7.9375" transform="rotate(-45 157.088 188.468)" fill="white" stroke="#FF5C00" stroke-width="0.125"/>
<defs>
<filter id="filter0_i" x="3.31372" y="3.31372" width="363.932" height="363.932" filterUnits="userSpaceOnUse" color-interpolation-filters="sRGB">
<feFlood flood-opacity="0" result="BackgroundImageFix"/>
<feBlend mode="normal" in="SourceGraphic" in2="BackgroundImageFix" result="shape"/>
<feColorMatrix in="SourceAlpha" type="matrix" values="0 0 0 0 0 0 0 0 0 0 0 0 0 0 0 0 0 0 127 0" result="hardAlpha"/>
<feOffset dy="7"/>
<feComposite in2="hardAlpha" operator="arithmetic" k2="-1" k3="1"/>
<feColorMatrix type="matrix" values="0 0 0 0 1 0 0 0 0 0.36 0 0 0 0 0 0 0 0 1 0"/>
<feBlend mode="normal" in2="shape" result="effect1_innerShadow"/>
</filter>
<filter id="filter1_i" x="54.3137" y="54.7015" width="262.51" height="262.51" filterUnits="userSpaceOnUse" color-interpolation-filters="sRGB">
<feFlood flood-opacity="0" result="BackgroundImageFix"/>
<feBlend mode="normal" in="SourceGraphic" in2="BackgroundImageFix" result="shape"/>
<feColorMatrix in="SourceAlpha" type="matrix" values="0 0 0 0 0 0 0 0 0 0 0 0 0 0 0 0 0 0 127 0" result="hardAlpha"/>
<feOffset dy="27"/>
<feComposite in2="hardAlpha" operator="arithmetic" k2="-1" k3="1"/>
<feColorMatrix type="matrix" values="0 0 0 0 1 0 0 0 0 0.36 0 0 0 0 0 0 0 0 1 0"/>
<feBlend mode="normal" in2="shape" result="effect1_innerShadow"/>
</filter>
<filter id="filter2_i" x="99.3137" y="100.772" width="171.838" height="171.838" filterUnits="userSpaceOnUse" color-interpolation-filters="sRGB">
<feFlood flood-opacity="0" result="BackgroundImageFix"/>
<feBlend mode="normal" in="SourceGraphic" in2="BackgroundImageFix" result="shape"/>
<feColorMatrix in="SourceAlpha" type="matrix" values="0 0 0 0 0 0 0 0 0 0 0 0 0 0 0 0 0 0 127 0" result="hardAlpha"/>
<feOffset dy="20"/>
<feComposite in2="hardAlpha" operator="arithmetic" k2="-1" k3="1"/>
<feColorMatrix type="matrix" values="0 0 0 0 1 0 0 0 0 0.36 0 0 0 0 0 0 0 0 1 0"/>
<feBlend mode="normal" in2="shape" result="effect1_innerShadow"/>
</filter>
<filter id="filter3_i" x="138.314" y="141.083" width="94.1227" height="94.1226" filterUnits="userSpaceOnUse" color-interpolation-filters="sRGB">
<feFlood flood-opacity="0" result="BackgroundImageFix"/>
<feBlend mode="normal" in="SourceGraphic" in2="BackgroundImageFix" result="shape"/>
<feColorMatrix in="SourceAlpha" type="matrix" values="0 0 0 0 0 0 0 0 0 0 0 0 0 0 0 0 0 0 127 0" result="hardAlpha"/>
<feOffset dy="1"/>
<feComposite in2="hardAlpha" operator="arithmetic" k2="-1" k3="1"/>
<feColorMatrix type="matrix" values="0 0 0 0 1 0 0 0 0 0.36 0 0 0 0 0 0 0 0 1 0"/>
<feBlend mode="normal" in2="shape" result="effect1_innerShadow"/>
</filter>
</defs>
</svg>
